<?xml version="1.0" encoding="UTF-8"?>
<svg id="a" data-name="svg20" xmlns="http://www.w3.org/2000/svg" width="700" height="700" viewBox="0 0 700 700">
  <defs>
    <style>
      .k {
        fill: #001e36;
      }

      .l {
        fill: #31a8ff;
      }
    </style>
  </defs>
  <g id="b" data-name="Layer 2" transform="matrix(2.0606602,0,0,2.0606602,102.72078,108.90276)">
    <g id="c" data-name="Surfaces">
      <g id="d" data-name="Photo Surface">
        <g id="e" data-name="Outline no shadow">
          <path id="f" data-name="rect8" class="k" d="M123.96,7h452.08c68.46,0,123.96,55.78,123.96,124.59v436.81c0,68.81-55.5,124.59-123.96,124.59H123.96c-68.46,0-123.96-55.78-123.96-124.59V131.59C0,62.78,55.5,7,123.96,7Z"/>
        </g>
      </g>
    </g>
    <g id="g" data-name="Outlined Mnemonics Logos">
      <g id="h" data-name="Ps">
        <path id="i" data-name="path13" class="l" d="M157.62,488.07V186.46c0-2.2,.94-3.3,2.82-3.3,5,0,9.57-.07,16.46-.24,6.88-.15,14.32-.31,22.31-.47,7.98-.16,16.44-.31,25.36-.47,8.92-.15,17.76-.23,26.53-.24,23.79,0,43.82,2.99,60.11,8.97,14.69,4.99,28.08,13.22,39.21,24.07,9.43,9.41,16.72,20.76,21.37,33.28,4.39,12.18,6.62,25.04,6.58,38,0,25.18-5.79,45.95-17.37,62.3-11.66,16.42-28.05,28.86-46.96,35.64-19.72,7.4-41.64,9.91-65.74,9.91-6.89,0-11.74-.08-14.56-.24-2.82-.16-7.04-.23-12.68-.24v94.17c.29,2.05-1.13,3.96-3.17,4.25-.35,.05-.71,.05-1.06,0h-55.91c-2.19,0-3.29-1.25-3.29-3.78h0Zm63.42-248.27v98.37c4.06,.32,7.82,.47,11.27,.47h15.5c11.4-.04,22.73-1.86,33.58-5.39,9.3-2.78,17.62-8.18,23.95-15.58,6.1-7.23,9.16-17.3,9.16-30.21,.25-9.13-2.12-18.14-6.81-25.96-4.93-7.56-12.07-13.41-20.43-16.76-10.92-4.26-22.57-6.27-34.28-5.9-7.51,0-14.17,.08-19.96,.24-5.8,.16-9.79,.4-11.97,.71h0Z"/>
        <path id="j" data-name="path15" class="l" d="M559.92,320.28c-8.83-4.56-18.22-7.89-27.94-9.91-10.71-2.47-21.65-3.74-32.64-3.78-5.94-.16-11.87,.55-17.61,2.12-3.65,.82-6.89,2.91-9.16,5.9-1.53,2.39-2.34,5.18-2.35,8.02,.09,2.76,1.08,5.42,2.82,7.55,2.74,3.22,6.09,5.87,9.86,7.79,6.7,3.62,13.59,6.85,20.66,9.68,15.76,5.3,30.82,12.51,44.85,21.48,9.55,6.06,17.46,14.41,23.01,24.31,4.67,9.37,7,19.73,6.81,30.21,.28,13.83-3.65,27.42-11.27,38.94-8.16,11.7-19.49,20.79-32.64,26.19-14.25,6.29-31.86,9.44-52.83,9.44-13.32,.14-26.62-1.13-39.68-3.78-10.29-1.9-20.31-5.07-29.82-9.44-2.1-1.09-3.38-3.3-3.29-5.66v-50.97c-.12-1.02,.34-2.01,1.17-2.6,.83-.47,1.85-.38,2.58,.24,11.23,6.66,23.43,11.52,36.16,14.4,11.21,2.83,22.72,4.33,34.28,4.48,10.95,0,19.02-1.42,24.18-4.25,4.77-2.19,7.8-7,7.75-12.27,0-4.09-2.35-8.02-7.04-11.8-4.7-3.78-14.24-8.34-28.65-13.69-14.74-5.16-28.72-12.3-41.56-21.24-9.18-6.42-16.74-14.9-22.07-24.78-4.62-9.3-6.95-19.58-6.81-29.97-.03-12.49,3.39-24.74,9.86-35.4,7.38-11.74,17.98-21.08,30.52-26.9,13.77-6.92,30.99-10.38,51.65-10.38,12.1-.1,24.19,.77,36.16,2.6,8.66,1.1,17.14,3.41,25.17,6.84,1.29,.37,2.34,1.33,2.82,2.6,.32,1.15,.48,2.34,.47,3.54v47.67c.07,1.13-.47,2.21-1.41,2.83-1.27,.64-2.77,.64-4.04,0h0Z"/>
      </g>
    </g>
  </g>
</svg>