<?xml version="1.0" encoding="UTF-8"?>
<svg id="a" data-name="Layer 1" xmlns="http://www.w3.org/2000/svg" width="45.36" height="45.33" viewBox="0 0 45.36 45.33">
  <defs>
    <style>
      .b {
        fill: none;
      }

      .c {
        fill: #f24e1e;
      }

      .d {
        fill: #ff7262;
      }

      .e {
        fill: #a259ff;
      }

      .f {
        fill: #0acf83;
      }

      .g {
        fill: #1abcfe;
      }

      .h {
        fill: #454b57;
      }

      .i {
        fill: #525967;
      }
    </style>
  </defs>
  <g>
    <path class="i" d="M13.86,10.23H31.5c2,0,3.63,1.63,3.63,3.63V31.48c0,2-1.63,3.63-3.63,3.63H13.86c-2,0-3.63-1.63-3.63-3.63V13.85c0-2,1.62-3.63,3.63-3.63Z"/>
    <path class="h" d="M31.5,11.31c1.4,0,2.54,1.14,2.54,2.54V31.48c0,1.4-1.14,2.54-2.54,2.54H13.86c-1.4,0-2.54-1.14-2.54-2.54V13.85c0-1.4,1.14-2.54,2.54-2.54H31.5m0-1.09H13.86c-2,0-3.63,1.62-3.63,3.63V31.48c0,2,1.62,3.63,3.63,3.63H31.5c2,0,3.63-1.62,3.63-3.63V13.85c0-2-1.62-3.63-3.63-3.63Z"/>
    <path class="f" d="M19.58,31.97c1.71,0,3.1-1.39,3.1-3.1v-3.1h-3.1c-1.71,0-3.1,1.39-3.1,3.1,0,1.71,1.39,3.1,3.1,3.1h0Z"/>
    <path class="e" d="M16.47,22.67c0-1.71,1.39-3.1,3.1-3.1h3.1v6.2h-3.1c-1.71,0-3.1-1.39-3.1-3.1Z"/>
    <path class="c" d="M16.47,16.46c0-1.71,1.39-3.1,3.1-3.1h3.1v6.2h-3.1c-1.71,0-3.1-1.39-3.1-3.1Z"/>
    <path class="d" d="M22.68,13.38h3.1c1.71,0,3.1,1.39,3.1,3.1s-1.39,3.1-3.1,3.1h-3.1v-6.2Z"/>
    <path class="g" d="M28.88,22.67c0,1.71-1.39,3.1-3.1,3.1s-3.1-1.39-3.1-3.1,1.39-3.1,3.1-3.1h0c1.71,0,3.1,1.39,3.1,3.1Z"/>
  </g>
  <path class="b" d="M0,0H45.36V45.33H0V0Z"/>
</svg>